<?xml version="1.0" encoding="utf-8"?>
<!-- Generator: Adobe Illustrator 19.0.0, SVG Export Plug-In . SVG Version: 6.00 Build 0)  -->
<svg version="1.1" id="Layer_1" xmlns="http://www.w3.org/2000/svg" xmlns:xlink="http://www.w3.org/1999/xlink" x="0px" y="0px"
	 viewBox="144 -54 900 900" style="enable-background:new 144 -54 900 900;" xml:space="preserve">
<style type="text/css">
	.st0{display:none;}
	.st1{display:inline;}
	.st2{fill:#FFFFFF;stroke:#FFFFFF;stroke-width:20;stroke-miterlimit:10;}
	.st3{fill:#F77B26;}
	.st4{fill:none;stroke:#FFFFFF;stroke-width:26;stroke-miterlimit:10;}
	.st5{fill:none;stroke:#FFFFFF;stroke-width:24;stroke-miterlimit:10;}
</style>
<g id="Layer_5_xA0_Image_1_" class="st0">
	<g class="st1">
		<path class="st2" d="M424.6,739.7c3.5-11.2-7.9,5.1,0.9-3c13.9-12.7,23.8-27.5,35.7-41.2c4.8-5.5,9-11.5,14.1-17
			c13.2-14.5,24-30.3,34.8-45.9c7.6-10.9,14.4-22.3,20.9-33.8c5-8.7,8.9-17.8,14-26.5c3.6-6,5.9-12.3,8.7-18.6
			c7.2-16.3,10.9-33.3,18.1-49.6c3-6.6,2.5-14.1,3.6-21.2c0.2-1.6-0.9-1.9-2.5-2.1c-30.2-4.8-66.2-25.6-86.3-43.4
			c-12.6-11.2-21-23.7-28.7-37.4c-9.3-16.7-14.9-34.4-23.9-51.1c-3.8-7.1-8.8-13.9-10.4-21.8c-1.5-7.7,0.2-15.1,7.4-20.1
			c10.8-7.5,23.9-11.2,38.3-9.9c12.1,1.1,20.3,6.7,24.1,16.2c1,2.4,1.9,4.7,2.5,7.2c7.1,26.9,21.4,51.5,37.5,75.4
			c6.8,10.1,32.2,23.4,47,27.3c-1.4-12.6,1.7-24.8,0.9-37.2c-0.9-14.6,1.2-29.3,0.2-43.8c-1.1-18.5,1.6-36.9-0.5-55.4
			c-1-9.4,0.9-18.9,0.9-28.4c0-3.8-1.2-6.6-4.6-9.2c-9.4-7.3-16-16-20.9-25.7c-5.8-11.5-2.6-22.4,2.6-33.4
			c10.6-22.3,33.2-32,59.9-37.1c7.9-1.5,15.7,0.3,22.9,2.8c15,5.3,22.8,12.1,33.5,22.4c13.3,22.5,7,40.5-8.3,64
			c-5.8,6-9.8,11-14.4,17.4c-2.6,1.4-3.3,2.8-2.8,5.3c1.4,6.8,1.1,13.6,0.2,20.4c-0.4,3.3,0.5,6.6,0.5,9.9
			c0.1,33.6,0.1,67.3,0.2,100.9c0,1.3,0,2.6,0,5.3c4.5-5,27-17.1,29.2-21.7c9.8-19.9,22.8-38.6,30.3-59.3
			c3.3-9.4,9.8-18.1,13.9-27.6c3.3-8,16.7-13.2,27.5-12c8.4,0.9,16.3,3.3,23.5,7c15.4,7.9,19.2,22.3,10,36.1
			c-9.2,13.7-15.5,28.1-22.7,42.3c-7.6,14.8-14.7,30-24.3,44c-10.6,15.9-24.3,30.3-42.2,41.9c-8.2,5.2-34.4,18.8-44.3,22.1
			c4.2,5.6,10.2,10.1,15.8,14.8c13.1,10.8,26.4,21.4,41,31.1c9.7,6.4,16.2,15.5,24.3,23.2c29,27.5,39.9,60.5,44.2,95.5
			c1.5,12.2,2,24.5,4,36.7c2.4,13.9,1.4,28.2,1.6,42.4c0.2,10.5-3,5.2-1.9,15.6c0.1,0.9-0.4,2.1,1.2,2.5c0,2.3,0,4.7,0,7
			c-2.7,1.9-2.4,4.8-3.2,7.2c-3.7,10.6-14.6,16.9-29.3,16.8c-15-0.2-24.4-6.1-28.1-17.1c-1.7-5.2-0.1-10.9-2.4-15.8
			c-6.1-13.3-1.1-11.8-5.8-25.3c-1.6-4.5-1.7-9.3-0.9-13.9c0.7-4.4,0.2-8.6-0.4-12.9c-3.3-21.9-2.4-44-9.8-65.7
			c-3.3-9.5-7.2-18.6-12.1-27.4c-5.7-10.1-15.6-17.4-25-25.1c-10.4-8.5-21.2-16.6-32.7-24.3c-6.9,15.5-11.5,31.1-18.9,46.1
			c-5.9,11.8-11.4,23.8-18.8,35.1c-14.4,22-25.9,45.2-44.4,65.4c-12.4,13.5-21,28.8-33.8,42.3c-15.5,16.4-6.8,10.5-20.6,27.9
			c-6.8,8.6-14.9,14.9-27.7,16.4c-9.4,0-18.2-1.7-25.9-6.4c-8.7-5.4-14.4-12.4-17.5-20.8C424.6,743.7,424.6,741.7,424.6,739.7z
			 M601.2,417.5c0.2,3.6,0.5,7.2,0.6,10.9c0.5,9.7-7.7,15.4-19.4,13.2c-24.5-4.5-56.6-22.3-68.8-39.6
			c-10.9-15.3-19.1-31.6-26.7-48.1c-4.2-9-8.5-17.8-10.5-27.4c-2.7-13.6-7.8-15.4-23.9-10.3c-9,2.9-10.8,5.9-6.8,13
			c4.6,8.4,8.8,16.8,13,25.3c4.6,9.3,7.6,18.9,12.4,28.1c3.5,6.7,7.8,13.2,10.9,20c3.1,6.7,7.7,12.5,13.6,17.6
			c5,4.2,9.4,8.8,14.5,13c16.2,13.2,48.3,29.7,72.2,31.8c9,0.8,15.2,6.7,14.2,13.9c-1.7,13-2.2,26-8.2,38.7
			c-6.7,14.6-10.6,29.9-16.5,44.8c-5.3,13.9-13,27.1-20.2,40.5c-6.6,12.2-14.2,24-21.8,35.7c-9.3,14.4-19.6,28.5-31.1,41.9
			c-5.6,6.6-11.4,13-16.7,19.8c-16.5,20.7-10,18.3-31.6,36.1c-6.6,5.5-6.6,8-0.1,13.6c8.2,7.1,18.4,9.1,26.6-1.1
			c12-15,1.6-6.9,14.7-21.3c12.8-14,24.3-28.8,35.5-43.7c8.5-11.3,19.2-21.8,25.9-33.8c13.6-24.3,31.4-47,41.7-72.7
			c7.4-18.6,17.1-36.6,18.6-56.4c0.2-3.6,1-7.3,5.7-8.7c4.8-1.4,9,0.3,13,2.9c8,5.2,14.1,12.1,21.9,17.5
			c14.1,9.7,27.4,20.2,39.9,31.3c21.7,19.1,27,43.9,34,67.9c0.1,0.5,0.1,1,0.1,1.5c1.5,22.7,6.1,45.3,5,68.1
			c-0.1,1.8,0.6,3.6,0.9,5.4c2.8,17.9,5.2,19.5,7.2,37.5c0.4,3.8,3,6.3,8.5,6.1c6.7-0.2,10.5-3,10.5-9.3c0-6-1-12-1.2-18
			c-0.9-18.1,1.9-20.5,2.5-38.7c0.2-8.1-3.7-15.7-3.8-23.7c-0.2-14.6-2.1-29.1-5.1-43.6c-7.2-33.9-29.1-61.4-58.7-84.7
			c-15.8-12.5-32.4-24.6-48-37.4c-6.3-5.2-12.5-10.7-16.8-17.1c-4.8-7.1-2.5-14.6,6.1-16.5c19.8-4.6,52.1-24.1,65.2-35.9
			c15.6-14.2,24.6-31.5,34.3-48.6c11.4-20.2,18.2-41.9,32.7-61c2.8-3.7,3.2-8.4-0.7-12.2c-3.5-3.3-15.8-6.5-19.7-5.4
			c-2.8,0.8-4.5,2.5-5.2,4.6c-5.1,14.6-15,27.6-20.1,42.3c-4.1,11.9-13,22.2-18.4,33.7c-7.4,15.7-37.9,37.2-51.1,49.7
			c-4.8,4.6-10.6,8.3-18.7,6c-5.3-1.5-7.4-8.3-5.6-16.1c1.4-6.2,2.4-12.4,2.4-18.8c-0.1-34.8-0.1-69.6-0.2-104.5
			c0-3.3-1.2-6.7-0.7-9.9c1.2-6.8,1.4-13.5-0.1-20.3c-1.6-7.7,1.4-13.7,9.8-17.9c7.1-3.5,3-12.5,9.2-17c17.5-12.4,21.2-28.5,6-42.3
			c-8.5-7.7-10-13.5-22-17.3c-4.5-1.4-9.4-1.5-14-0.4c-20.3,5.1-36.2,14-42,31.8c-2,6-2.1,11.6,1.1,17.4
			c4.6,8.4,11.6,15.3,19.4,21.7c4.6,3.8,6.3,8.2,6.6,13.5c0.4,14.5-1.5,28.9-0.2,43.3c1.2,14.6-0.6,29.2,0,43.9
			c0.6,13.7-1.5,27.6-0.4,41.3C603.2,394.7,600.7,406,601.2,417.5z"/>
		<path class="st2" d="M585.5,27c0.2,0.3,0.4,0.8,0.6,0.8c19.6,1.5,28.4,12.1,31.1,26.1c4.1,20.7,11.4,40.8,18.2,60.9
			c6.4,19-13.1,35.7-39.1,32.6c-14.4-1.7-22-8.7-25.6-19.5c-2.6-8-5.2-16.1-6.7-24.3c-2.5-14-8.9-27.2-13.7-40.8
			c-5.4-15.4,6.8-31.9,25.4-33.9c2.5-0.3,5.3-0.2,7.3-1.9C583.8,27,584.6,27,585.5,27z M603.4,131c8.3,0.1,13.9-5.2,11.9-12.9
			c-0.4-1.6-0.7-3.3-1.5-4.8c-6.7-14-10-28.7-14.1-43.3c-1.5-5-1.7-10.2-3.2-15.2c-1.4-4.2-3.5-8.5-9.3-9.8
			c-5.2-1.2-10.2,0.2-14.1,3.4c-3.2,2.6-3.6,5.6-2.7,9.1c3.1,13.6,10.6,26.2,13.6,39.8c2,9.3,3.6,18.7,7.6,27.6
			C593.4,129.3,596.5,131.1,603.4,131z"/>
		<path class="st2" d="M750.2,125.2c-0.6,6.1-14.2,7.8-8.7,17.2c-11.6,9.4-23.2,18.9-35.7,27.6c-8,5.6-18,5.9-27.9,2.6
			c-13.4-4.5-23-11.9-28-23c-5.7-12.6,2.5-24.7,13.6-31.1c8.5-4.9,15.7-10.5,21.5-17.6c5.3-6.4,14-8.8,23-9
			C724.9,88.4,745,103.7,750.2,125.2z M729.4,124.2c-1.6-5.8-6.9-9.8-13-13.3c-6.8-3.9-12.1-3-16.7,2.5c-5.4,6.5-12.3,12-20.3,16.5
			c-3.5,1.9-6.2,4.3-8.5,7c-2.5,2.8-2.6,5.7-0.6,8.4c3.3,4.6,7.8,8.5,13.7,11.1c4.6,1.9,8.5,1.8,12-1.5c8-7.8,18-14,27.1-20.9
			C726.1,131.6,729,128.7,729.4,124.2z"/>
		<path class="st2" d="M502,97.7c4.3,0.4,9.5,1,13.7,3.4c14.9,8.3,29.8,16.5,44,25.6c14.7,9.4,23.6,29.6,12.3,41.4
			c-13.1,13.7-38.3,10.3-53.5,0.7c-12.6-8-25.5-15.7-38.5-23.1c-13.1-7.5-16.2-17.9-9.4-29.8C476.5,105.2,486,98.3,502,97.7z
			 M502,114.5c-5.2-0.1-11.4,4.9-13.6,10.2c-1.7,4.2,1.9,6.4,5.2,8c13,6.4,25.1,13.8,36.5,22c2.1,1.5,4.6,2.8,7.8,2.5
			c4.6-0.5,11.9-6.2,13.1-10.5c1.2-4.5-3.1-6.6-6.7-8.7c-6.9-4.1-14.4-7.6-20.8-12.4c-5.1-3.8-11.8-6-17.2-9.6
			C505,115.3,503,114.9,502,114.5z"/>
	</g>
</g>
<g>
	<g>
		<g>
			<path class="st3" d="M447.6,387.9c-4.2-3.1-8.2-6.5-11.9-10.3c-10.9-11.1-3.7-2.6-25.8-21.2c-6.5-5.4-35.5-42.5-39.5-52
				c-1-2.3-2-4.6-3.4-6.7c-4.9-7.3-0.4-9.9,6.6-11.4c2.2-0.7,12.7-4.9,16.9-5.4c2.9-2.1,6.6-1.7,11.4,5.3c0,0.1,0.1,0.1,0.1,0.2
				c1.4,2.1,2.7,4.3,3.9,6.5c12,21.1,27.8,39.8,46.8,54.8l24.3,19.1c10.4,10,21.6,19,33.7,26.8c14.3,9.3,30.5,21.3,47.1,23.5
				c18.2,2.4,29.6-2.5,29.4-11.6c0-9.9,7-20.1,7.2-30.1c0-9.9-1-19.9-1-29.8c0-5.3,1.3-10.6,1.3-15.9c0.2-18.1,0-36.2,0-54.4
				c0-14.3-1.2-27.7-4.8-39.9l-18.6-32.7c-3.7-7.1-6.2-19.8-3.9-27c7.2-22.4,22.1-31.8,47.8-37.6c6.8-1.4,15.9-0.8,21.9,1.8
				c12,5.4,20.2,16.2,24.9,27.3c8.8,26,6.4,34.5-6.6,53.6l-14.6,20.9l-5.4,35.3l3.3,119.2c-2.1,7.1,0.2,12.7,7.8,13.9l69.3-32.1
				c15.6-9,43.6-32.3,52.8-43.3l42.5-43.1c3.6-3.6,9.4-4,13.3-0.7l7.5,5.4c7.2,5.1,7.2,15.8,0,20.9c-3.9,2.8-8.9,5.8-14,11.4
				c-19.5,22-44.3,43.6-66.5,65.1c-12.2,11.8-26,16.7-44.7,26.7c-9.4,4.9-17.6,9.3-27.1,12.9c-14.9,5.6-21,23.5-12.8,37.1v0
				c21.6,10.3,54.6,30.5,71.3,44.6l56.7,48c2.3,1.8,4.6,3.8,6.6,6c25.8,26.5,16.5,33.1,22.6,64.1c6.3,33.1,2.5,50.5,4.4,83.8
				l0.4,6.1c0.5,8.4-4.9,16.1-13.1,18.4h0c-9.9-0.8-12.6-4.3-13.4-8.4l-9.9-32.7c-2.9-9.6-2.3-19.4-3.8-29.1
				c-2.5-16.6-4.6-33.2-8.4-49.8c0-0.1-0.1-0.1-0.1-0.2c-8.9-19.8-22.3-37.3-39.3-50.9L687,527.3c-13.1-9.9-31.2-26.2-47.6-33.1
				c-4-1.7-11.7-2.7-16.8-2.2c-3.4,0.4-9.8,2.5-10.7,4.9c-2.1,5.5-8.2,13.9-11.3,19.3c-15.5,25.7-25.8,47.1-47.7,73.7l-65.5,68.2
				c-4.2,4.4-8.6,8.6-13.3,12.5l-25.8,21.8l-42.1,21c-0.1,0-0.3,0-0.4,0c-15.8,0.1-24.7-18.1-15.1-30.6l0.2-0.2
				c1-1.3,2.1-2.4,3.4-3.4c20.4-15.8,25.6-20.3,47.2-36.7c12.4-9.5,24-19.2,35.4-29c13.9-12,26.4-25.5,37.4-40.3l29.9-40.4
				c10.3-15,14.2-22.8,22.2-38.1c3.3-6.5,6.7-10.2,6.8-21.3c0.1-5.1-6.2-14-9.3-18c-4.3-5.4-13.1-15.1-29.9-21
				C503.1,423.4,474.1,407.4,447.6,387.9L447.6,387.9z"/>
			<path class="st4" d="M814.6,754.5c-17.4-1.4-23.2-10.5-25-18.1l-9.7-32.2c-2.3-7.4-2.8-14.7-3.2-21.1c-0.2-3.4-0.5-6.7-0.9-9.8
				c-0.5-3.3-1-6.7-1.5-10c-1.9-13-3.7-25.2-6.4-37.6c-8.1-17.6-20.2-33.1-35.1-45.1L679,537.5c-3.1-2.3-6.4-5-9.8-7.7
				c-10.6-8.5-23.8-19-34.8-23.6c-1.1-0.5-5.1-1.3-8.9-1.3c-0.6,0-1.1,0-1.4,0.1c-0.4,0.1-1,0.2-1.6,0.4c-2,3.9-4.6,8-7.2,12
				c-1.3,2-2.6,4-3.4,5.5l-0.1,0.2c-3.7,6.1-7.2,12.1-10.5,17.9c-10.8,18.7-21,36.4-38.3,57.3l-0.3,0.4l-65.8,68.5
				c-4.5,4.7-9.3,9.2-14.3,13.4l-27,22.8l-46.2,23l-3.8,0c-12.2,0-23.2-6.8-28.6-17.8c-5.4-11.1-4.1-24,3.4-33.7l0.2-0.2
				c1.7-2.2,3.6-4.1,5.7-5.7c8.8-6.8,14.7-11.5,20.5-16c7.5-5.9,14.5-11.4,26.8-20.8c12.8-9.7,24.8-19.9,34.8-28.5
				c13.1-11.3,25-24.1,35.4-38.2l29.8-40.2c9.4-13.7,13.1-20.8,20.4-34.9l0.8-1.6c0.7-1.4,1.4-2.6,2-3.7c2.2-4,3.2-5.8,3.4-11.2
				c-0.6-1.6-2.8-5.7-6.5-10.5c-6.1-7.8-13.9-13.3-24-16.8c-30.9-10.9-61.2-27.1-89.9-48.2c-4.8-3.5-9.3-7.4-13.4-11.6
				c-4.7-4.8-5.1-5.1-6.9-6.3c-2.5-1.7-6.6-4.5-17.9-14c-7.8-6.5-38.2-45.2-43.2-57c-0.6-1.5-1.4-3.2-2.2-4.4
				c-5.5-8.2-4.7-14.9-3-19c3.5-8.7,12.8-11.3,16.8-12.2c0.3-0.1,0.7-0.3,1.2-0.4c6.3-2.3,11.1-4,14.8-4.8c2.4-1.1,5-1.7,7.6-1.7
				c7.1,0,13.5,4,19,12l0.3,0.4c1.4,2.2,2.9,4.5,4.4,7.2c11.5,20.1,26.1,37.2,43.6,51l24.8,19.5l0.5,0.5c9.8,9.5,20.5,18,31.7,25.3
				c1.8,1.2,3.7,2.4,5.6,3.7c12.1,8,24.6,16.3,36.1,17.9c2.5,0.3,4.8,0.5,7,0.5c3.9,0,6.4-0.5,7.7-1c0.3-6.5,2.4-12.4,4.3-17.7
				c1.4-4.1,2.8-7.9,2.9-10.8c0-4.6-0.2-9.2-0.5-14.1c-0.3-5.1-0.5-10.3-0.5-15.6c0-3.4,0.4-6.6,0.7-9.5c0.3-2.3,0.5-4.5,0.5-6.4
				l0-0.1c0.1-12,0.1-24.2,0-36c0-6.1,0-12.2,0-18.2c0-14.1-1.2-25.2-3.9-34.9l-18-31.5l-0.1-0.2c-5-9.6-8.3-25.9-4.7-37
				c10.1-31.6,33.5-40.9,57.3-46.2l0.1,0c3.3-0.7,6.8-1,10.5-1c7.1,0,13.9,1.3,19.3,3.7l0.1,0c13.6,6.1,24.8,18.2,31.6,34.1l0.2,0.5
				l0.2,0.5c10.3,30.3,7,42.9-8.2,65.1l-12.9,18.5l-4.8,31.1l3.2,115.6l58.1-26.9c14.5-8.5,40.9-30.6,48.8-40.1l0.3-0.4l42.9-43.5
				c4.3-4.4,10.1-6.8,16.3-6.8c5.1,0,10.1,1.7,14.1,4.9l7.3,5.2c6.8,4.9,10.8,12.7,10.8,21.1c0,8.3-4.1,16.2-10.8,21
				c-0.8,0.6-1.6,1.1-2.5,1.7c-3.2,2.2-6.3,4.3-9.4,7.7c-14,15.8-30.7,31.4-46.8,46.4c-6.8,6.3-13.8,12.9-20.4,19.3
				c-10.4,10.1-21.5,15.6-34.3,22c-4.2,2.1-8.6,4.3-13.3,6.8l-2.8,1.5c-8.5,4.4-16.5,8.6-25.8,12.1c-4.7,1.8-6.6,5.5-7.3,7.5
				c-0.9,2.5-0.9,5.2-0.2,7.7c21.2,10.6,52.3,29.6,69.9,44.4l56.6,47.9c2.7,2.2,5.3,4.5,7.7,7c20.7,21.3,22.4,33,23.6,50.5
				c0.4,5.6,0.8,12,2.4,20.1c4.3,22.4,4.2,38.2,4.1,54.9c-0.1,9.3-0.1,18.9,0.5,30.6l0.4,6.1c0.9,14.5-8.6,27.8-22.5,31.7l-2.2,0.6
				L814.6,754.5z"/>
		</g>
		<g>
			<path class="st3" d="M586.5,17.8c8.2,3.5,11.5,9.3,13,16.4c3.7,18.4,8.4,36.6,16.2,54.3c1.4,3.1,2.4,6.5,2.2,9.7
				c-0.1,5.5-6.2,9.8-13.5,10.5c-8,0.8-13.2-1.3-15.2-7.3c-3.2-9.6-5.2-19.5-8.3-29.1c-3.7-11.8-8.2-23.4-12-35.1
				c-3.8-11.5-1.1-15.2,13.1-18.6c0.4-0.1,0.5-0.5,0.7-0.7C584,17.8,585.3,17.8,586.5,17.8z"/>
			<path class="st5" d="M601.4,121.8c-12.1,0-21-6-24.5-16.4c-1.8-5.4-3.2-10.8-4.6-16c-1.2-4.6-2.3-8.9-3.7-13.1
				c-2-6.4-4.3-12.9-6.5-19.1c-1.8-5.2-3.7-10.5-5.5-15.9c-2.1-6.2-3.9-14.4,0.4-22c4-7.1,11.3-10.4,19-12.5l1.8-1.5l4-0.3
				c1.8-0.1,3.4-0.1,4.8-0.1h2.7l2.5,1.1c11.1,4.8,18,13.4,20.6,25.7c4.3,21.5,9.1,37.4,15.4,51.7c2.4,5.4,3.5,10.6,3.3,15.3
				c-0.3,12-10.9,21.7-25.2,23C604.2,121.8,602.8,121.8,601.4,121.8z"/>
		</g>
		<g>
			<path class="st3" d="M739.2,104.7c-1.4,1.6-3.3,5.2-6.4,7.7c-9.4,7.7-19.3,14.9-28.8,22.5c-4.2,3.3-9.3,3.4-13.4,0.9
				c-5.3-3.3-10.3-7.1-14.5-11.3c-3.2-3.2-2.7-7.3,0.2-10.7c1.4-1.6,2.8-3.4,4.8-4.5c10.3-6.2,19.8-12.9,26.9-21.7
				c1.2-1.5,4.5-2.5,6.9-2.8C724.1,83.5,739.5,95,739.2,104.7z"/>
			<path class="st5" d="M696.6,150.6c-4.5,0-8.9-1.3-12.8-3.7c-6.4-4-12.1-8.4-16.9-13.2c-7.9-7.9-8.1-19.5-0.4-28.4l0.1-0.1
				c1.7-2,4.2-4.9,8-7.1c8.1-4.9,17.1-10.9,23.3-18.6l0.1-0.1c4.5-5.5,12.1-7,15.3-7.4c1-0.1,2.1-0.2,3.2-0.2
				c10.5,0,20.6,6.5,26.5,12.6c6.2,6.3,9.5,13.7,9.3,20.8l-0.1,4.6l-2.9,3.4c-0.2,0.3-0.4,0.6-0.7,1c-1.6,2.2-3.9,5.6-7.5,8.5
				c-5.4,4.4-11,8.7-16.5,12.9c-4.1,3.2-8.4,6.4-12.4,9.7l-0.1,0.1C707.5,148.7,702.2,150.6,696.6,150.6z"/>
		</g>
		<g>
			<path class="st3" d="M525.8,145.7c-2-1-5.1-2.4-8-4.1c-10.8-6.4-21.4-12.9-32.2-19.3c-4.3-2.6-10.6-4.9-9-9.6
				c1.6-4.6,5.8-9.1,10.3-12.4c2-1.4,8.3-0.8,11.1,0.7c8.3,4.2,15.8,9.4,23.9,14.1c5.2,3,10.8,5.5,15.8,8.6
				c4.3,2.6,8.3,5.8,5.9,10.9C541.2,139.8,532.4,145.8,525.8,145.7z"/>
			<path class="st5" d="M522.6,158.6l-2.7-1.3c-0.5-0.3-1.1-0.5-1.7-0.8c-2-1-4.4-2.1-6.9-3.6l-0.2-0.1c-5.4-3.2-10.8-6.5-16.2-9.7
				c-5.3-3.2-10.7-6.4-16-9.6c-0.6-0.4-1.3-0.7-1.9-1.1c-2.5-1.3-5.5-3-8.2-5.6c-5.1-5-6.8-11.8-4.6-18.3c3.1-9,10.6-15.5,14.8-18.6
				l0.2-0.2c3-2.1,6.8-3.2,11.4-3.2c1.8,0,8,0.2,13.2,2.9c5.8,2.9,11.2,6.3,16.3,9.5c2.8,1.7,5.5,3.4,8.2,5c2,1.2,4.2,2.3,6.5,3.5
				c3.1,1.6,6.3,3.3,9.5,5.2c16.7,10.1,13.3,22.6,11,27.5c-4.6,10.1-18.1,18.7-29.5,18.7L522.6,158.6z"/>
		</g>
	</g>
</g>
</svg>
